# xmcd
#
# Track frame offsets: 
#        150
#        14586
#        33669
#        57102
#        70782
#        93686
#        104055
#        118587
#        139245
#        153407
#        168269
#        178635
#        197544
#        214384
#        233841
#
# Disc length: 3427 seconds
#
# Revision: 0
# Processed by: cddbd v1.5.1PL0 Copyright (c) Steve Scherf et al.
# Submitted via: ExactAudioCopy v0.95b1
#
DISCID=d90d610f
DTITLE=Junior M.A.F.I.A. - Riot Musik
DYEAR=2005
DGENRE=Rap
TTITLE0=Telephone Skit #1
TTITLE1=Just Us
TTITLE2=Die Anyway feat. Jadakiss
TTITLE3=Lets Get It On
TTITLE4=Riot Musik
TTITLE5=Telephone Skit #2
TTITLE6=Gaup feat. Minnesota, Eddie Cheeba and Trey of Boss Money
TTITLE7=Yap-Yap feat. Prodigy of Mobb Deep
TTITLE8=Throw Down Your Guns
TTITLE9=Nothing Wrong
TTITLE10=Telephone Skit #3
TTITLE11=Why You Wanna
TTITLE12=Fall Back
TTITLE13=Do Da Damm Thing
TTITLE14=Damage Control
EXTD=
EXTT0=
EXTT1=
EXTT2=
EXTT3=
EXTT4=
EXTT5=
EXTT6=
EXTT7=
EXTT8=
EXTT9=
EXTT10=
EXTT11=
EXTT12=
EXTT13=
EXTT14=
PLAYORDER=
